<?xml version="1.0" encoding="utf-8"?>
<!-- Generator: Adobe Illustrator 16.0.0, SVG Export Plug-In . SVG Version: 6.00 Build 0)  -->
<!DOCTYPE svg PUBLIC "-//W3C//DTD SVG 1.1//EN" "http://www.w3.org/Graphics/SVG/1.1/DTD/svg11.dtd">
<svg version="1.1" id="Layer_1" xmlns="http://www.w3.org/2000/svg" xmlns:xlink="http://www.w3.org/1999/xlink" x="0px" y="0px"
	 width="100px" height="100px" viewBox="0 0 100 100" enable-background="new 0 0 100 100" xml:space="preserve">
<g>
	<g>
		<g>
			<path fill="#FFFFFF" d="M75,31.771v6.25l-8.333,6.25H33.334L25,38.021v-6.25H0V100h100V31.771H75z M39.423,88.021H10.577V73.6
				c0,0,0-2.885,1.682-4.061c1.689-1.178,6.973-1.709,6.973-1.709H25c-4.779,0-8.655-3.875-8.655-8.654s3.875-8.654,8.655-8.654
				c4.778,0,8.653,3.875,8.653,8.654S29.779,67.83,25,67.83h5.768c0,0,5.284,0.531,6.972,1.709c1.683,1.176,1.683,4.061,1.683,4.061
				V88.021z M87.5,86.285H50v-2.777h37.5V86.285z M87.5,78.529H50v-2.777h37.5V78.529z M87.5,70.777H50v-2.779h37.5V70.777z
				 M87.5,63.021H50v-2.779h37.5V63.021z"/>
		</g>
	</g>
	<g>
		<g>
			<path fill="#FFFFFF" d="M62.5,19.259l-6.25-12.5h-12.5l-6.25,12.5h-6.25v12.502l6.25,6.248H62.5l6.25-6.248V19.259H62.5z
				 M50,21.343c-2.302,0-4.166-1.865-4.166-4.166c0-2.303,1.864-4.168,4.166-4.168s4.166,1.865,4.166,4.168
				C54.166,19.478,52.302,21.343,50,21.343z"/>
		</g>
	</g>
</g>
</svg>
