<svg id="Layer_1" data-name="Layer 1" xmlns="http://www.w3.org/2000/svg" viewBox="0 0 1466 300"><defs><style>.cls-1{fill:#fff;}.cls-2{fill:#1e274a;}</style></defs><rect class="cls-1" width="1466" height="300"/><path class="cls-2" d="M421.93,96c-1.45-6.15-6.16-9.7-13-9.7-10.58,0-16.63,7.78-16.63,21.24s6.05,21.34,16.24,21.34c7.41,0,11.83-3.65,13.56-11.34H437.4c-1.73,14.51-12.59,23.55-28.45,23.55-18.94,0-31.05-13.07-31.05-33.55s11.92-33.45,31-33.45c15.48,0,26,8.26,27.78,21.91Z"/><path class="cls-2" d="M459.7,97.2C463.55,93.55,467.2,92,472,92a15.8,15.8,0,0,1,11.92,5c3,3.26,4.13,7.21,4.13,14.13v28.55H474.41v-26c0-4.33-.38-6.06-1.54-7.69a6.5,6.5,0,0,0-5.38-2.41,8.52,8.52,0,0,0-6,2.31c-1.54,1.64-1.83,3-1.83,7.79v26.05H446.05V75.57H459.7Z"/><path class="cls-2" d="M513.44,93.26l-.39,8.26C515.74,94,519.2,91.91,529.1,92v12.88a24.18,24.18,0,0,0-3.46-.19c-4.71,0-8.55,2.11-10.09,5.57-1.35,3.08-1.83,7.4-1.83,16.34v13.08H500.07V93.26Z"/><path class="cls-2" d="M550.16,139.69H536.51V93.26h13.65Z"/><path class="cls-2" d="M587.45,107.2c-.57-3.46-3.36-5.29-7.88-5.29-3.94,0-6.54,1.54-6.54,3.84,0,1.74,1.35,2.6,5.67,3.56l8.56,1.83c5.67,1.15,8.56,2.4,10.57,4.52,2.22,2.11,3.47,5.57,3.47,9.32,0,9.81-8,16-20.87,16s-20.85-6.06-21.62-16.35h12.78c.77,4.43,3.65,6.45,9.13,6.45,4.33,0,7.12-1.73,7.12-4.52,0-2.21-1.54-3.37-5.19-4.23l-8.46-1.92c-10.19-2.22-14.14-6-14.14-13.37,0-9.32,7.41-15,19.81-15,11.92,0,19.13,5.38,20.38,15.19Z"/><path class="cls-2" d="M634.55,103.45h-8.36v18.07c0,7.3.29,7.88,3.46,7.88h4.9v10.29h-8.36c-6,0-8.94-.87-11-3.08s-2.69-4.8-2.69-12V103.45H606V93.83h6.54V79.13h13.65v14.7h8.36Z"/><path class="cls-2" d="M657.43,139.69H643.78V93.26h13.65Z"/><path class="cls-2" d="M669.54,107.87C670.4,97.2,677,92,690.11,92c7,0,12.4,1.63,16.06,4.8,3.36,3,4.61,6.73,4.61,13.56v21.34c0,5,.19,5.67,1.73,8H698.57c-.58-1.64-.58-1.92-1.06-3.65-4.52,3.75-7.78,4.9-13.26,4.9-10.29,0-17.11-5.77-17.11-14.52s5.48-13.26,18.45-15.38l7.4-1.25c3.08-.48,4.14-1.25,4.14-3.17,0-2.6-2.69-4.23-7.11-4.23-5,0-7.69,1.73-8.27,5.48Zm28,9.71a27.26,27.26,0,0,1-5,1.44l-4.9,1.06c-4.9,1.15-7,2.79-7,5.57,0,3.08,2.6,4.91,6.93,4.91a10.66,10.66,0,0,0,10-5.87Z"/><path class="cls-2" d="M723,107.87C723.85,97.2,730.48,92,743.56,92c7,0,12.4,1.63,16.05,4.8,3.36,3,4.62,6.73,4.62,13.56v21.34c0,5,.19,5.67,1.73,8H752c-.58-1.64-.58-1.92-1.06-3.65-4.52,3.75-7.79,4.9-13.27,4.9-10.28,0-17.11-5.77-17.11-14.52S726.06,113.16,739,111l7.4-1.25c3.08-.48,4.13-1.25,4.13-3.17,0-2.6-2.69-4.23-7.11-4.23-5,0-7.69,1.73-8.27,5.48Zm28,9.71a27.26,27.26,0,0,1-5,1.44l-4.9,1.06c-4.9,1.15-7,2.79-7,5.57,0,3.08,2.6,4.91,6.92,4.91a10.67,10.67,0,0,0,10-5.87Z"/><path class="cls-2" d="M789.6,93.26v4.52c5-4.62,7.88-5.87,12.69-5.87,10.09,0,16.25,6.73,16.25,17.69v30.09H804.89V114.41c0-4.71-.29-6.54-1.45-8.27a6.45,6.45,0,0,0-5.57-2.69A7.7,7.7,0,0,0,792,106c-1.53,1.73-2,3.65-2,7.69v26.05H776.33V93.26Z"/><path class="cls-2" d="M395.17,196.78v27.69H380.75V160.35h14.42v24.13h23.55V160.35h14.42v64.12H418.72V196.78Z"/><path class="cls-2" d="M488,224.47h-13v-5.1c-3.27,4.62-6.63,6.35-12.31,6.35a17.28,17.28,0,0,1-12.3-4.81c-3.17-3.17-4.42-7.11-4.42-13.75V178h13.65v26.14c0,4.52.19,5.68,1.44,7.31a7.19,7.19,0,0,0,6,2.69,7,7,0,0,0,5.86-2.69c1.25-1.63,1.45-2.69,1.45-7.31V178H488Z"/><path class="cls-2" d="M541.66,178l-16.15,46.81c-2.59,7.6-4.13,10.29-6.53,12-2.22,1.63-5.29,2.31-10.39,2.31h-8V228.89h4c4.81,0,7-1.83,7-5.86,0-1.64-.1-1.93-1.73-6l-15.29-39h14.62l6.82,21.24c1.35,4.33,1.35,4.42,2.4,8.27l.58,1.83c.58-3.08,1.35-6.25,2.41-10.39l6-21Z"/><path class="cls-2" d="M591.46,178.33v41.72c0,7.59-1.06,10.95-4.33,14.13-4.23,4.13-10.57,6.25-18.55,6.25-13,0-20.77-5.29-21.73-14.81H561c1,2.89,3.66,4.33,8.17,4.33a10.49,10.49,0,0,0,6.44-1.83c2-1.63,2.6-3.36,2.6-8.07V217c-4.13,3.75-7.31,5-12.5,5-12.21,0-21-9.33-21-22.4s8.84-22.78,20.57-22.78c6.05,0,10.38,2.3,13.55,7.21l-.29-5.67Zm-33.75,21c0,6.82,4.14,11.53,10.29,11.53,6.34,0,10.29-4.51,10.29-11.73,0-6.82-4.14-11.34-10.29-11.34S557.71,192.46,557.71,199.38Z"/><path class="cls-2" d="M615.29,205.24c.87,6.35,4.62,9.81,10.48,9.81,3.65,0,6.25-1.25,8.08-4.14h13.84c-2.6,9-11.25,14.81-22.3,14.81-14.33,0-23.84-9.81-23.84-24.42s9.71-24.51,23.74-24.51c9.81,0,17.21,4.9,20.67,13.65,1.63,4,2.3,8.36,2.3,14.8Zm18.94-9.61c-.58-5.48-3.75-8.46-9-8.46s-8.74,3-9.8,8.46Z"/><path class="cls-2" d="M671.33,178v4.52c5-4.62,7.89-5.87,12.69-5.87,10.1,0,16.25,6.73,16.25,17.69v30.09H686.62V199.18c0-4.7-.29-6.53-1.44-8.26a6.48,6.48,0,0,0-5.58-2.69,7.66,7.66,0,0,0-5.86,2.5c-1.54,1.73-2,3.65-2,7.69v26.05H658.07V178Z"/><path class="cls-2" d="M737.56,192c-.57-3.46-3.36-5.29-7.88-5.29-3.94,0-6.54,1.54-6.54,3.84,0,1.73,1.35,2.6,5.68,3.56l8.55,1.83c5.67,1.15,8.56,2.4,10.58,4.52,2.21,2.11,3.46,5.57,3.46,9.32,0,9.8-8,16-20.86,16s-20.86-6.06-21.63-16.34H721.7c.77,4.42,3.66,6.44,9.14,6.44,4.32,0,7.11-1.73,7.11-4.52,0-2.21-1.54-3.37-5.19-4.23l-8.46-1.92c-10.19-2.22-14.13-6-14.13-13.37,0-9.32,7.4-15,19.8-15,11.92,0,19.13,5.38,20.38,15.19Z"/><path class="cls-2" d="M986.19,114.56l-3.11,9.14h-4.61l11.19-30.48h4.66l11.25,30.48h-4.76l-3.15-9.14ZM992,97.92l-4.48,13h9Z"/><path class="cls-2" d="M1013.28,101.44v2.42A8.88,8.88,0,0,1,1020,101c5.9,0,9.78,4.66,9.78,11.83,0,7-3.65,11.47-9.41,11.47a8.76,8.76,0,0,1-7.09-3.11v9.51h-4.2V101.44Zm-.22,11.06c0,5.35,2.19,8.27,6.26,8.27s6.21-2.92,6.21-8.13-2.24-8.14-6.21-8.14S1013.06,107.43,1013.06,112.5Z"/><path class="cls-2" d="M1039,101.44v2.42a8.88,8.88,0,0,1,6.72-2.87c5.9,0,9.78,4.66,9.78,11.83,0,7-3.65,11.47-9.41,11.47a8.76,8.76,0,0,1-7.09-3.11v9.51h-4.2V101.44Zm-.22,11.06c0,5.35,2.19,8.27,6.26,8.27s6.21-2.92,6.21-8.13-2.24-8.14-6.21-8.14S1038.74,107.43,1038.74,112.5Z"/><path class="cls-2" d="M1064.64,123.7h-4.2V93.22h4.2Z"/><path class="cls-2" d="M1075,98.11h-4.21V93.22H1075Zm0,25.59h-4.21V101.63H1075Z"/><path class="cls-2" d="M1084.2,113.69c.32,4.52,2.6,7.08,6.4,7.08a5.29,5.29,0,0,0,5.34-3.84h4c-1,4.62-4.57,7.36-9.45,7.36-6.22,0-10.52-4.75-10.52-11.65S1084.2,101,1090.37,101a9.06,9.06,0,0,1,9.05,6.58,19.66,19.66,0,0,1,.86,6.08Zm11.7-3.06c-.19-4-2.2-6.26-5.53-6.26s-5.9,2.56-6.13,6.26Z"/><path class="cls-2" d="M1124.91,123.7h-4.2v-2.38a9.15,9.15,0,0,1-7,3c-5.9,0-9.6-4.57-9.6-11.74s3.75-11.52,9.6-11.52a9.16,9.16,0,0,1,7,3V93.22h4.2Zm-16.54-11.06c0,5.21,2.28,8.13,6.26,8.13s6.31-2.92,6.31-8c0-5.31-2.24-8.23-6.31-8.23S1108.37,107.47,1108.37,112.64Z"/><path class="cls-2" d="M1158.31,123.7l-7.08-18.28c-.82-2.33-1.51-4.34-2.06-6.31.14,2.29.23,4.75.23,6.67V123.7h-4.11V93.22h5.34l7.59,19.51c1,2.65,1.1,3,1.83,5.39.91-2.74,1.28-3.74,1.83-5.3l7.54-19.47h5.34V123.7h-4.11V105.78c0-2.1.09-4.29.23-6.67-.73,2.47-1.28,4.21-2.24,6.67l-6.9,17.92Z"/><path class="cls-2" d="M1181.39,108.94c.18-2.61.68-4.16,1.78-5.4,1.41-1.6,4.06-2.51,7.17-2.51,5.49,0,8.59,2.61,8.59,7.18v10.37c0,1.74.23,2.1,1.19,2.1a2.64,2.64,0,0,0,1.1-.23v3.25a12,12,0,0,1-2.74.32c-2,0-2.93-.87-3.29-3a10.22,10.22,0,0,1-7.64,3.24c-4.29,0-7.22-2.65-7.22-6.53,0-3.57,2.2-5.76,6.68-6.67l4.89-1c2.65-.51,3.19-.92,3.19-2.29,0-2.15-1.87-3.47-4.84-3.47-2.15,0-3.84.68-4.43,1.87a5.94,5.94,0,0,0-.51,2.7Zm13.8,3.42a18.41,18.41,0,0,1-2.61.83l-4.29,1c-2.56.6-3.71,1.65-3.71,3.38,0,2,1.65,3.39,4.12,3.39,3.56,0,6.49-2.61,6.49-5.76Z"/><path class="cls-2" d="M1214,105h-4v13.85c0,1.28.6,2,1.65,2a6.07,6.07,0,0,0,2.33-.6v3.43a14.2,14.2,0,0,1-3.52.51c-3.15,0-4.66-1.7-4.66-5.35V105h-3v-3.33h3v-7h4.2v7h4Z"/><path class="cls-2" d="M1222.28,103.64a9,9,0,0,1,6.58-2.61,7.7,7.7,0,0,1,6.21,2.56c1.06,1.28,1.47,2.83,1.47,5.35V123.7h-4.21V109.62c0-1.87-.23-2.83-.91-3.56a4.41,4.41,0,0,0-3.38-1.28c-3.66,0-5.76,2.19-5.76,5.89v13h-4.21V93.22h4.21Z"/><path class="cls-2" d="M1245.81,113.69c.32,4.52,2.6,7.08,6.4,7.08a5.29,5.29,0,0,0,5.34-3.84h4c-1.06,4.62-4.57,7.36-9.46,7.36-6.22,0-10.52-4.75-10.52-11.65S1245.81,101,1252,101a9.06,9.06,0,0,1,9,6.58,19.63,19.63,0,0,1,.87,6.08Zm11.7-3.06c-.18-4-2.2-6.26-5.53-6.26s-5.9,2.56-6.13,6.26Z"/><path class="cls-2" d="M1270.89,101.63v2.78c1.7-2.51,3.25-3.38,6-3.38,2.93,0,4.71,1.14,5.71,3.7,1.74-2.65,3.57-3.7,6.68-3.7a6.62,6.62,0,0,1,5.43,2.29c1,1.23,1.42,2.83,1.42,5.39v15h-4.2V109c0-2.88-1.19-4.25-3.66-4.25-2.88,0-4.66,2.1-4.66,5.48V123.7h-4.21v-15c0-2.51-1.28-3.88-3.65-3.88-2.83,0-4.66,2.06-4.66,5.25V123.7h-4.21V101.63Z"/><path class="cls-2" d="M1302.24,108.94c.18-2.61.68-4.16,1.78-5.4,1.42-1.6,4.07-2.51,7.18-2.51,5.48,0,8.59,2.61,8.59,7.18v10.37c0,1.74.23,2.1,1.18,2.1a2.64,2.64,0,0,0,1.1-.23v3.25a11.91,11.91,0,0,1-2.74.32c-2,0-2.92-.87-3.29-3a10.2,10.2,0,0,1-7.63,3.24c-4.3,0-7.22-2.65-7.22-6.53,0-3.57,2.19-5.76,6.67-6.67l4.89-1c2.65-.51,3.2-.92,3.2-2.29,0-2.15-1.88-3.47-4.85-3.47-2.14,0-3.84.68-4.43,1.87a5.84,5.84,0,0,0-.5,2.7Zm13.8,3.42a18.41,18.41,0,0,1-2.61.83l-4.29,1c-2.56.6-3.7,1.65-3.7,3.38,0,2,1.64,3.39,4.11,3.39,3.56,0,6.49-2.61,6.49-5.76Z"/><path class="cls-2" d="M1334.86,105h-4v13.85c0,1.28.59,2,1.64,2a6,6,0,0,0,2.33-.6v3.43a14.14,14.14,0,0,1-3.52.51c-3.15,0-4.66-1.7-4.66-5.35V105h-3v-3.33h3v-7h4.21v7h4Z"/><path class="cls-2" d="M1343.13,98.11h-4.2V93.22h4.2Zm0,25.59h-4.2V101.63h4.2Z"/><path class="cls-2" d="M1364.7,109.12a5.23,5.23,0,0,0-5.57-4.57c-4,0-6.72,3.2-6.72,8s2.65,8.18,6.72,8.18c3.29,0,5.25-1.78,5.85-5.34h4c-.59,5.62-4.2,8.86-9.92,8.86-6.58,0-10.87-4.61-10.87-11.65s4.34-11.61,11-11.61c5.39,0,8.91,3,9.51,8.09Z"/><path class="cls-2" d="M1386.54,108.39c-.59-2.74-2.1-3.89-5-3.89-2.51,0-4.2,1.06-4.2,2.61,0,1.1.78,1.83,2.56,2.28l5.12,1.33c4.61,1.19,6.53,3.11,6.53,6.49,0,4.34-3.56,7.08-9.18,7.08-6,0-9.56-2.92-10-8.18h4.16c.23,2.93,2.42,4.66,5.94,4.66,3,0,5-1.32,5-3.38,0-1.46-1-2.24-3.52-2.92l-4.39-1.1a10.78,10.78,0,0,1-4.66-2.06,5.13,5.13,0,0,1-1.64-3.79c0-3.79,3.52-6.49,8.5-6.49,3.15,0,5.75,1,7.31,2.93a7.29,7.29,0,0,1,1.55,4.43Z"/><path class="cls-2" d="M1002.78,153.13a7.94,7.94,0,0,0-8.18-6.44c-5.85,0-9.69,4.75-9.69,11.92,0,7.36,3.84,12.34,9.55,12.34,4.75,0,8-3.19,8.73-8.5h4.39a13.67,13.67,0,0,1-2.61,7.09,12.31,12.31,0,0,1-10.6,5.21,12.57,12.57,0,0,1-10.69-5.21,17.9,17.9,0,0,1-3.34-10.83c0-9.28,5.89-15.82,14.26-15.82,6.49,0,11.1,3.66,12.43,9.83Z"/><path class="cls-2" d="M1032.66,163.18c0,6.77-4.34,11.48-10.65,11.48s-10.6-4.71-10.6-11.66,4.3-11.61,10.6-11.61C1028.46,151.39,1032.66,156.06,1032.66,163.18Zm-17-.18c0,5.17,2.33,8.14,6.4,8.14s6.35-3,6.35-8c0-5.3-2.28-8.23-6.4-8.23S1015.66,157.88,1015.66,163Z"/><path class="cls-2" d="M1041.66,152v2.79c1.69-2.52,3.24-3.39,6-3.39,2.92,0,4.7,1.15,5.71,3.71,1.73-2.65,3.56-3.71,6.67-3.71a6.68,6.68,0,0,1,5.44,2.29c1,1.23,1.42,2.83,1.42,5.39v15h-4.21V159.39c0-2.88-1.19-4.25-3.66-4.25-2.87,0-4.66,2.1-4.66,5.49v13.43h-4.2V159c0-2.52-1.28-3.89-3.66-3.89-2.83,0-4.66,2.06-4.66,5.26v13.66h-4.2V152Z"/><path class="cls-2" d="M1077.3,151.81v2.42a8.86,8.86,0,0,1,6.72-2.88c5.89,0,9.78,4.66,9.78,11.83,0,7-3.66,11.48-9.42,11.48a8.77,8.77,0,0,1-7.08-3.11v9.5h-4.21V151.81Zm-.23,11.06c0,5.34,2.19,8.27,6.26,8.27s6.22-2.93,6.22-8.14-2.24-8.13-6.22-8.13S1077.07,157.79,1077.07,162.87Z"/><path class="cls-2" d="M1113.21,174.06v-2.51a8.37,8.37,0,0,1-7,3.11,7.41,7.41,0,0,1-6-2.43c-1.06-1.37-1.47-2.92-1.47-5.48V152H1103v14.44c0,3,1.37,4.48,4.25,4.48,3.61,0,5.8-2.1,5.8-5.53V152h4.21v22.07Z"/><path class="cls-2" d="M1132.17,155.32h-4v13.85c0,1.28.59,2,1.64,2a6,6,0,0,0,2.33-.59V174a14,14,0,0,1-3.51.5c-3.16,0-4.67-1.69-4.67-5.35V155.32h-3V152h3v-7h4.21v7h4Z"/><path class="cls-2" d="M1138.75,164.05c.32,4.53,2.61,7.09,6.4,7.09,2.61,0,4.34-1.24,5.35-3.84h4c-1,4.61-4.57,7.36-9.46,7.36-6.22,0-10.51-4.76-10.51-11.66s4.2-11.61,10.37-11.61a9.05,9.05,0,0,1,9,6.58,19.63,19.63,0,0,1,.87,6.08Zm11.7-3.06c-.18-4-2.19-6.26-5.53-6.26s-5.89,2.56-6.12,6.26Z"/><path class="cls-2" d="M1163.84,152v3.47a11.88,11.88,0,0,1,1.83-2.33,5.83,5.83,0,0,1,3.93-1.74,5.22,5.22,0,0,1,2.33.55v3.8a7.94,7.94,0,0,0-1.92-.23c-3.38,0-6,3-6,6.94v11.61h-4.2V152Z"/><path class="cls-2" d="M1208.16,153c-.46-4.2-3-6.26-7.58-6.26-4.07,0-6.68,1.74-6.68,4.39,0,2.24,1.6,3.56,5.49,4.43l4.93,1.1c3.61.82,5.44,1.6,6.9,2.92a7.63,7.63,0,0,1,2.47,5.85c0,5.76-4.66,9.33-12.06,9.33-7.91,0-12.66-4-13.3-11.34h4.52c.46,4.85,3.66,7.54,8.91,7.54,4.39,0,7.5-2.14,7.5-5.21,0-2.28-1.65-3.79-4.85-4.57l-6.85-1.64c-5.58-1.33-8.09-3.79-8.09-7.91,0-5.34,4.43-8.73,11.42-8.73s10.75,3.25,11.7,10.1Z"/><path class="cls-2" d="M1234.43,159.48a5.24,5.24,0,0,0-5.57-4.57c-4,0-6.72,3.2-6.72,8.05s2.65,8.18,6.72,8.18c3.29,0,5.25-1.79,5.85-5.35h4c-.59,5.62-4.2,8.87-9.91,8.87-6.58,0-10.88-4.62-10.88-11.66s4.34-11.61,11-11.61c5.4,0,8.92,3,9.51,8.09Z"/><path class="cls-2" d="M1247.36,148.47h-4.2v-4.89h4.2Zm0,25.59h-4.2V152h4.2Z"/><path class="cls-2" d="M1256.59,164.05c.32,4.53,2.61,7.09,6.4,7.09,2.6,0,4.34-1.24,5.35-3.84h4c-1,4.61-4.57,7.36-9.46,7.36-6.22,0-10.51-4.76-10.51-11.66s4.2-11.61,10.37-11.61a9.05,9.05,0,0,1,9,6.58,19.63,19.63,0,0,1,.87,6.08Zm11.7-3.06c-.18-4-2.19-6.26-5.53-6.26s-5.89,2.56-6.12,6.26Z"/><path class="cls-2" d="M1281.68,152v2.51a8.37,8.37,0,0,1,7-3.11,7.45,7.45,0,0,1,6,2.43c1,1.37,1.46,2.92,1.46,5.48v14.76h-4.21V159.62c0-3-1.37-4.48-4.25-4.48-3.61,0-5.8,2.1-5.8,5.53v13.39h-4.21V152Z"/><path class="cls-2" d="M1317.73,159.48a5.24,5.24,0,0,0-5.58-4.57c-4,0-6.72,3.2-6.72,8.05s2.66,8.18,6.72,8.18c3.29,0,5.26-1.79,5.85-5.35h4c-.6,5.62-4.21,8.87-9.92,8.87-6.58,0-10.88-4.62-10.88-11.66s4.35-11.61,11-11.61c5.39,0,8.91,3,9.5,8.09Z"/><path class="cls-2" d="M1329.65,164.05c.32,4.53,2.61,7.09,6.4,7.09,2.61,0,4.34-1.24,5.35-3.84h4c-1.05,4.61-4.57,7.36-9.46,7.36-6.22,0-10.51-4.76-10.51-11.66s4.2-11.61,10.37-11.61a9.05,9.05,0,0,1,9,6.58,19.63,19.63,0,0,1,.87,6.08Zm11.7-3.06c-.18-4-2.19-6.26-5.53-6.26s-5.89,2.56-6.12,6.26Z"/><path class="cls-2" d="M999.81,203.36c-.46-4.21-3-6.26-7.59-6.26-4.07,0-6.67,1.73-6.67,4.38,0,2.24,1.6,3.57,5.48,4.44L996,207c3.61.83,5.44,1.6,6.9,2.93a7.6,7.6,0,0,1,2.47,5.85c0,5.76-4.66,9.32-12.07,9.32-7.9,0-12.66-4-13.3-11.33h4.53c.46,4.84,3.65,7.54,8.91,7.54,4.39,0,7.49-2.15,7.49-5.21,0-2.29-1.64-3.8-4.84-4.57l-6.85-1.65c-5.58-1.32-8.09-3.79-8.09-7.9,0-5.35,4.43-8.73,11.42-8.73s10.74,3.24,11.7,10.1Z"/><path class="cls-2" d="M1019.45,205.69h-4v13.84c0,1.28.59,2,1.64,2a6,6,0,0,0,2.33-.6v3.43a14,14,0,0,1-3.52.5c-3.15,0-4.66-1.69-4.66-5.35V205.69h-3v-3.34h3v-7h4.21v7h4Z"/><path class="cls-2" d="M1037.64,224.43v-2.52a8.38,8.38,0,0,1-7,3.11,7.44,7.44,0,0,1-6-2.42c-1.05-1.37-1.46-2.93-1.46-5.49V202.35h4.2v14.44c0,3,1.37,4.48,4.25,4.48,3.61,0,5.81-2.1,5.81-5.53V202.35h4.2v22.08Z"/><path class="cls-2" d="M1067.48,224.43h-4.21v-2.38a9.14,9.14,0,0,1-7,3c-5.89,0-9.6-4.57-9.6-11.75s3.75-11.51,9.6-11.51a9.15,9.15,0,0,1,7,3V193.94h4.21Zm-16.55-11.06c0,5.21,2.29,8.13,6.26,8.13s6.31-2.92,6.31-8c0-5.3-2.24-8.22-6.31-8.22S1050.93,208.2,1050.93,213.37Z"/><path class="cls-2" d="M1092.43,202.35l-9.74,24.73c-1.23,3.06-2.88,4.34-5.57,4.34a9.17,9.17,0,0,1-3.39-.69V227.3a6.29,6.29,0,0,0,2.65.6,3.06,3.06,0,0,0,3.07-2.29l.59-1.73-9.14-21.53h4.52l4.89,12.62c.74,1.91.87,2.23,1.65,4.66.5-1.65,1.23-3.93,1.51-4.66l4.57-12.62Z"/><path class="cls-2" d="M1114.49,215.28l-3.11,9.15h-4.61L1118,193.94h4.67l11.24,30.49h-4.75l-3.16-9.15Zm5.76-16.63-4.48,13h9Z"/><path class="cls-2" d="M1150.09,209.12c-.6-2.75-2.11-3.89-5-3.89-2.51,0-4.21,1.05-4.21,2.61,0,1.09.78,1.82,2.56,2.28l5.12,1.33c4.62,1.18,6.54,3.1,6.54,6.49,0,4.34-3.57,7.08-9.19,7.08-6,0-9.55-2.93-10-8.18H1140c.23,2.92,2.42,4.66,5.94,4.66,3,0,5-1.32,5-3.38,0-1.46-1-2.24-3.51-2.93l-4.39-1.09a11,11,0,0,1-4.66-2.06,5.12,5.12,0,0,1-1.65-3.79c0-3.8,3.52-6.49,8.5-6.49,3.15,0,5.76,1.05,7.31,2.92a7.34,7.34,0,0,1,1.56,4.44Z"/><path class="cls-2" d="M1172.66,209.12c-.6-2.75-2.11-3.89-5-3.89-2.51,0-4.2,1.05-4.2,2.61,0,1.09.77,1.82,2.56,2.28l5.11,1.33c4.62,1.18,6.54,3.1,6.54,6.49,0,4.34-3.57,7.08-9.19,7.08-6,0-9.55-2.93-10-8.18h4.16c.23,2.92,2.43,4.66,5.94,4.66,3,0,5-1.32,5-3.38,0-1.46-1-2.24-3.52-2.93l-4.39-1.09A11,11,0,0,1,1161,212a5.12,5.12,0,0,1-1.65-3.79c0-3.8,3.52-6.49,8.5-6.49,3.16,0,5.76,1.05,7.32,2.92a7.34,7.34,0,0,1,1.55,4.44Z"/><path class="cls-2" d="M1202.31,213.55c0,6.76-4.34,11.47-10.65,11.47s-10.6-4.71-10.6-11.65,4.3-11.61,10.6-11.61S1202.31,206.42,1202.31,213.55Zm-17-.18c0,5.16,2.33,8.13,6.4,8.13s6.35-3,6.35-8c0-5.3-2.28-8.22-6.4-8.22S1185.31,208.25,1185.31,213.37Z"/><path class="cls-2" d="M1222.74,209.85a5.23,5.23,0,0,0-5.58-4.57c-4,0-6.72,3.2-6.72,8s2.65,8.18,6.72,8.18c3.29,0,5.26-1.78,5.85-5.35h4c-.6,5.62-4.21,8.87-9.92,8.87-6.58,0-10.88-4.62-10.88-11.65s4.34-11.61,11-11.61c5.39,0,8.91,3,9.5,8.09Z"/><path class="cls-2" d="M1235.67,198.83h-4.21v-4.89h4.21Zm0,25.6h-4.21V202.35h4.21Z"/><path class="cls-2" d="M1241.74,209.66c.18-2.6.69-4.15,1.78-5.39,1.42-1.6,4.07-2.51,7.18-2.51,5.48,0,8.59,2.6,8.59,7.17v10.38c0,1.73.23,2.1,1.19,2.1a2.8,2.8,0,0,0,1.09-.23v3.25a12.44,12.44,0,0,1-2.74.31c-2,0-2.92-.86-3.29-3a10.21,10.21,0,0,1-7.63,3.25c-4.3,0-7.22-2.65-7.22-6.54,0-3.56,2.19-5.75,6.67-6.67l4.89-1c2.65-.5,3.2-.91,3.2-2.28,0-2.15-1.87-3.48-4.84-3.48-2.15,0-3.84.69-4.44,1.88a5.75,5.75,0,0,0-.5,2.69Zm13.8,3.43a17.13,17.13,0,0,1-2.6.82l-4.3,1c-2.56.59-3.7,1.64-3.7,3.38,0,2,1.65,3.38,4.11,3.38,3.57,0,6.49-2.6,6.49-5.75Z"/><path class="cls-2" d="M1274.37,205.69h-4v13.84c0,1.28.59,2,1.65,2a6.11,6.11,0,0,0,2.33-.6v3.43a14.13,14.13,0,0,1-3.52.5c-3.16,0-4.66-1.69-4.66-5.35V205.69h-3v-3.34h3v-7h4.2v7h4Z"/><path class="cls-2" d="M1282.64,198.83h-4.21v-4.89h4.21Zm0,25.6h-4.21V202.35h4.21Z"/><path class="cls-2" d="M1308.91,213.55c0,6.76-4.34,11.47-10.65,11.47s-10.6-4.71-10.6-11.65,4.3-11.61,10.6-11.61C1304.71,201.76,1308.91,206.42,1308.91,213.55Zm-17-.18c0,5.16,2.33,8.13,6.4,8.13s6.35-3,6.35-8c0-5.3-2.28-8.22-6.4-8.22S1291.91,208.25,1291.91,213.37Z"/><path class="cls-2" d="M1317.91,202.35v2.52a8.36,8.36,0,0,1,7-3.11,7.46,7.46,0,0,1,6,2.42c1,1.37,1.46,2.92,1.46,5.48v14.77h-4.2V210c0-3-1.38-4.47-4.25-4.47-3.61,0-5.81,2.1-5.81,5.52v13.4h-4.2V202.35Z"/><circle class="cls-2" cx="898.27" cy="220.12" r="4.3"/><circle class="cls-2" cx="898.27" cy="195.57" r="4.3"/><circle class="cls-2" cx="898.27" cy="171.02" r="4.3"/><circle class="cls-2" cx="898.27" cy="146.47" r="4.3"/><circle class="cls-2" cx="898.27" cy="121.93" r="4.3"/><circle class="cls-2" cx="898.27" cy="97.38" r="4.3"/><circle class="cls-2" cx="543.33" cy="79.48" r="6.91"/><circle class="cls-2" cx="650.6" cy="79.48" r="6.91"/><path class="cls-2" d="M279.81,75.53a34,34,0,0,1-34,34H234.47a56.57,56.57,0,0,0-45.33,22.67,56.55,56.55,0,0,0-45.33-22.67H132.48a34,34,0,0,1-34-34H75.81a56.67,56.67,0,0,0,56.67,56.67h11.33a34,34,0,0,1,34,34h22.67a34,34,0,0,1,34-34h11.34a56.67,56.67,0,0,0,56.66-56.67Z"/><polygon class="cls-2" points="189.14 245.53 206.14 188.87 172.14 188.87 189.14 245.53"/><circle class="cls-2" cx="121.42" cy="188.86" r="22.67"/><circle class="cls-2" cx="256.87" cy="188.86" r="22.67" transform="translate(-8.29 11.83) rotate(-2.6)"/></svg>