<?xml version="1.0" encoding="utf-8"?>
<!-- Generator: Adobe Illustrator 16.0.0, SVG Export Plug-In . SVG Version: 6.00 Build 0)  -->
<!DOCTYPE svg PUBLIC "-//W3C//DTD SVG 1.1//EN" "http://www.w3.org/Graphics/SVG/1.1/DTD/svg11.dtd">
<svg version="1.1" id="Layer_1" xmlns="http://www.w3.org/2000/svg" xmlns:xlink="http://www.w3.org/1999/xlink" x="0px" y="0px"
	 width="100px" height="100px" viewBox="0 0 100 100" enable-background="new 0 0 100 100" xml:space="preserve">
<g>
	<g>
		<g>
			<path fill="#FFFFFF" d="M57.537,54.905l0.066,1.07v-1C57.581,54.952,57.56,54.929,57.537,54.905z M3.533,55.322
				C0,57.788,0,63.845,0,63.845L0.856,100h19.829l0.212-38.415c0,0,0.012-6.737,3.814-9.852h-6.544
				C18.167,51.733,7.076,52.847,3.533,55.322z M35.742,24.969c0.543-3.232,1.423-6.209,2.617-8.862
				c-2.496-1.29-5.321-2.031-8.324-2.031c-10.032,0-18.167,8.135-18.167,18.167c0,9.169,6.8,16.731,15.625,17.971
				c3.671-1.426,9.23-2.332,12.48-2.771c0.813-0.533,1.572-1.136,2.288-1.788C36.582,41.338,34.522,32.219,35.742,24.969z"/>
		</g>
	</g>
	<circle fill="#FFFFFF" cx="63.844" cy="27.689" r="21.693"/>
	<g>
		<g>
			<path fill="#FFFFFF" d="M95.783,53.669c-4.232-2.955-17.476-4.285-17.476-4.285H49.382c0,0-13.243,1.33-17.475,4.285
				c-4.217,2.945-4.217,10.176-4.217,10.176V100H100V63.845C100,63.845,100,56.614,95.783,53.669z"/>
		</g>
	</g>
</g>
</svg>
