<?xml version="1.0" encoding="utf-8"?>
<!-- Generator: Adobe Illustrator 16.0.0, SVG Export Plug-In . SVG Version: 6.00 Build 0)  -->
<!DOCTYPE svg PUBLIC "-//W3C//DTD SVG 1.1//EN" "http://www.w3.org/Graphics/SVG/1.1/DTD/svg11.dtd">
<svg version="1.1" id="Layer_1" xmlns="http://www.w3.org/2000/svg" xmlns:xlink="http://www.w3.org/1999/xlink" x="0px" y="0px"
	 width="128px" height="128px" viewBox="0 0 128 128" enable-background="new 0 0 128 128" xml:space="preserve">
<path d="M53.896,90.725c-0.27-0.212-0.544-0.418-0.809-0.635c-0.021,0.212-0.057,0.416-0.067,0.635H53.896z"/>
<g>
	<path fill="#222222" d="M65.424,59.278c-1.94-0.338-3.934-0.523-5.971-0.523c-9.521,0-18.142,3.845-24.402,10.064
		C28.74,75.09,24.83,83.776,24.83,93.377c0,2.335,0.235,4.615,0.676,6.821C28.674,116.053,42.666,128,59.453,128
		c8.647,0,16.547-3.177,22.614-8.418c7.351-6.349,12.009-15.729,12.009-26.205C94.076,76.292,81.699,62.108,65.424,59.278z
		 M47.533,113.731v-4.38c0-1.127,0.229-2.335,0.69-3.625c0.086-0.241,0.202-0.493,0.317-0.746c0.502-1.096,1.267-2.291,2.319-3.596
		c1.3-1.605,2.673-3.15,4.121-4.636l2.709-2.766c0.545-0.564,1.74-1.87,3.58-3.919c1.84-2.049,3.056-3.62,3.644-4.713
		c0.588-1.093,0.881-2.168,0.881-3.228c0-1.708-0.683-3.027-2.045-3.958c-1.365-0.93-2.899-1.396-4.604-1.396
		c-0.972,0-2.06,0.111-3.261,0.333c-1.202,0.222-2.256,0.482-3.159,0.781c-0.904,0.299-2.371,0.909-4.399,1.832v-4.227
		c2.151-1.024,4.307-1.729,6.467-2.113c2.162-0.384,3.94-0.576,5.342-0.576c2.066,0,3.966,0.337,5.699,1.012
		c1.733,0.675,3.022,1.721,3.867,3.138c0.846,1.417,1.269,2.929,1.269,4.534c0,1.793-0.546,3.629-1.634,5.507
		c-1.09,1.879-3.137,4.295-6.14,7.249l-2.918,2.895l-2.457,2.408c-1.553,1.571-2.805,3.091-3.76,4.56
		c-0.847,1.302-1.338,2.839-1.515,4.584c0.277,0.228,0.565,0.444,0.849,0.667h18.188v4.38H60.015H47.533z"/>
	<path fill="#222222" d="M47.569,39.074c-4.748-2.833-10.269-4.451-16.094-4.451C14.121,34.623,0,48.743,0,66.099
		c0,13.849,8.933,25.823,21.776,29.948c-0.062-0.89-0.094-1.78-0.094-2.67c0-3.82,0.58-7.506,1.639-10.984
		c-0.108-0.033-0.202-0.055-0.312-0.089v-4.158c0.494,0.267,1.025,0.503,1.57,0.729c1.858-4.453,4.549-8.476,7.873-11.877
		c-1.67-0.447-3.771-0.679-6.328-0.679h-2.479V51.032h17.808V54.7H27.457v7.787h0.655c3.111,0,5.724,0.453,7.861,1.336
		c6.452-5.137,14.61-8.217,23.479-8.217c0.569,0,1.144,0.014,1.719,0.041C58.696,48.606,53.801,42.792,47.569,39.074z"/>
	<g>
		<path fill="#222222" d="M88.655,69.391c3.537,4.308,6.119,9.401,7.476,14.955c0.565-1.564,0.863-3.232,0.863-5.012
			c0-2.909-0.754-5.297-2.261-7.162C93.295,70.391,91.265,69.47,88.655,69.391z"/>
		<path fill="#222222" d="M83.06,26.579c-11.354,0-22.31,4.342-30.586,12.02c5.354,4.087,9.435,9.653,11.668,16.003l0.479,1.365
			c0.448,0.062,0.896,0.132,1.342,0.209c2.24,0.39,4.402,0.971,6.474,1.725c0.81-2.102,1.838-3.995,3.103-5.663
			c3.504-4.621,8.248-6.931,14.231-6.931c3.217,0,6.342,0.472,9.375,1.414V52.5c-3.401-1.618-6.608-2.428-9.621-2.428
			c-4.262,0-7.562,1.957-9.897,5.871c-0.789,1.322-1.435,2.774-1.957,4.335c2.539,1.393,4.892,3.062,7.019,4.97
			c1.31-0.419,2.685-0.637,4.129-0.637c2.479,0,4.83,0.604,7.054,1.813c2.224,1.209,3.92,2.895,5.088,5.056
			c1.168,2.163,1.752,4.677,1.752,7.546c0,4.529-1.451,8.468-4.351,11.818c-0.373,0.432-0.762,0.833-1.166,1.208
			c0.015,0.44,0.029,0.88,0.029,1.323c0,8.216-2.675,16.12-7.511,22.591C111.351,112.744,128,94.04,128,71.519
			C128,46.739,107.84,26.579,83.06,26.579z"/>
	</g>
</g>
</svg>
