<?xml version="1.0" encoding="utf-8"?>
<!-- Generator: Adobe Illustrator 16.0.0, SVG Export Plug-In . SVG Version: 6.00 Build 0)  -->
<!DOCTYPE svg PUBLIC "-//W3C//DTD SVG 1.1//EN" "http://www.w3.org/Graphics/SVG/1.1/DTD/svg11.dtd">
<svg version="1.1" id="Layer_1" xmlns="http://www.w3.org/2000/svg" xmlns:xlink="http://www.w3.org/1999/xlink" x="0px" y="0px"
	 width="128px" height="128px" viewBox="0 0 128 128" enable-background="new 0 0 128 128" xml:space="preserve">
<g>
	<path fill="#222222" d="M17.388,60.124c0-2.654,2.152-4.806,4.805-4.806h19.823l61.912-19.243l-1.313-4.223
		c-0.788-2.534-3.481-3.95-6.016-3.163L3.382,57.664c-2.535,0.787-3.951,3.48-3.164,6.016l1.313,4.222l15.856-4.928V60.124z"/>
	<g>
		<polygon fill="#222222" points="109.907,55.318 107.924,48.935 87.386,55.318 		"/>
		<polygon fill="#222222" points="17.388,77.075 5.527,80.762 17.388,118.916 		"/>
	</g>
	<path fill="#222222" d="M123.194,59.519H25.578c-2.654,0-4.806,2.151-4.806,4.806v58.869c0,2.654,2.151,4.806,4.806,4.806h97.616
		c2.653,0,4.806-2.152,4.806-4.806V64.325C128,61.67,125.848,59.519,123.194,59.519z M115.815,99.683
		c0,0.534-0.434,0.967-0.967,0.967l-19.645,0c-0.535,0-0.967-0.433-0.967-0.966V87.836c0-0.534,0.432-0.967,0.967-0.967h19.645
		c0.533,0,0.967,0.433,0.967,0.967V99.683z"/>
</g>
</svg>
